<?xml version="1.0" encoding="UTF-8" standalone="no"?>
<svg
   width="465.60388"
   height="82.500923"
   preserveAspectRatio="xMidYMid"
   version="1.0"
   viewBox="0 0 349.19793 61.874998"
   zoomAndPan="magnify"
   id="svg15"
   sodipodi:docname="Logo_No Slogan_Indigo.svg"
   inkscape:version="1.4 (86a8ad7, 2024-10-11)"
   xmlns:inkscape="http://www.inkscape.org/namespaces/inkscape"
   xmlns:sodipodi="http://sodipodi.sourceforge.net/DTD/sodipodi-0.dtd"
   xmlns="http://www.w3.org/2000/svg"
   xmlns:svg="http://www.w3.org/2000/svg">
  <sodipodi:namedview
     id="namedview15"
     pagecolor="#ffffff"
     bordercolor="#000000"
     borderopacity="0.25"
     inkscape:showpageshadow="2"
     inkscape:pageopacity="0.0"
     inkscape:pagecheckerboard="0"
     inkscape:deskcolor="#d1d1d1"
     inkscape:zoom="1.4371386"
     inkscape:cx="249.80193"
     inkscape:cy="68.191057"
     inkscape:window-width="1920"
     inkscape:window-height="1010"
     inkscape:window-x="-6"
     inkscape:window-y="145"
     inkscape:window-maximized="1"
     inkscape:current-layer="g10"
     showgrid="false" />
  <defs
     id="defs1">
    <clipPath
       id="239566c340">
      <path
         d="m 12.191,189.74 h 350.17 v 20.645 H 12.191 Z"
         id="path1" />
    </clipPath>
  </defs>
  <g
     transform="translate(-12.197532,-121.465)"
     fill="#165d7b"
     id="g10"
     style="fill:#0a8aad;fill-opacity:1">
    <g
       transform="translate(14.291,183.34)"
       id="g3"
       style="fill:#ffffff;fill-opacity:1">
      <path
         d="M 23.844,0 -2.094,-61.875 H 13.797 L 29.406,-21.219 45,-61.875 H 60.906 L 34.953,0 Z"
         id="path3"
         style="fill:#ffffff;fill-opacity:1" />
    </g>
    <g
       transform="translate(73.091,183.34)"
       id="g4"
       style="fill:#ffffff;fill-opacity:1">
      <path
         d="M 35.922,-61.875 60.906,0 H 45.75 L 41.1719,-12.375 H 17.6249 L 13.0468,0 h -15.141 l 24.969,-61.875 z m 0.45312,37.125 -6.9062,-18 H 29.3283 l -6.9062,18 z"
         id="path4"
         style="fill:#ffffff;fill-opacity:1" />
    </g>
    <g
       transform="translate(131.89,183.34)"
       id="g5"
       style="fill:#ffffff;fill-opacity:1">
      <path
         d="M 18.594,-38.406 V 0 H 4.5 v -61.875 h 14.094 l 24.609,38.406 h 0.14062 v -38.406 h 14.109 V 0 h -14.109 l -24.594,-38.406 z"
         id="path5"
         style="fill:#ffffff;fill-opacity:1" />
    </g>
    <g
       transform="translate(193.84,183.34)"
       id="g6"
       style="fill:#ffffff;fill-opacity:1">
      <path
         d="m 0.59375,-49.5 v -12.375 h 43.5 V -49.5 h -14.688 V 0 h -14.109 v -49.5 z"
         id="path6"
         style="fill:#ffffff;fill-opacity:1" />
    </g>
    <g
       transform="translate(238.54,183.34)"
       id="g7"
       style="fill:#ffffff;fill-opacity:1">
      <path
         d="M 18.594,-61.875 V 0 H 4.5 v -61.875 z"
         id="path7"
         style="fill:#ffffff;fill-opacity:1" />
    </g>
    <g
       transform="translate(261.64,183.34)"
       id="g8"
       style="fill:#ffffff;fill-opacity:1">
      <path
         d="M 62.406,0 H 44.172 L 29.547,-21.078 14.922,0 H -2.547 L 20.844,-33.297 1.344,-61.875 H 18.156 L 29.547,-45 40.953,-61.875 H 58.5 l -20.25,28.578 z"
         id="path8"
         style="fill:#ffffff;fill-opacity:1" />
    </g>
    <g
       transform="translate(321.49,183.34)"
       id="g9"
       style="fill:#ffffff;fill-opacity:1">
      <path
         d="M 39.906,-61.875 V -49.5 H 18.594 v 12.297 H 39 v 12.375 H 18.594 v 12.453 H 39.906 V 0 H 4.5 v -61.875 z"
         id="path9"
         style="fill:#ffffff;fill-opacity:1" />
    </g>
  </g>
  <g
     transform="translate(-10.918532,-10.115)"
     fill="#ffffff"
     id="g13">
    <g
       transform="translate(140.51,204.94)"
       id="g11" />
    <g
       transform="translate(257.96,204.94)"
       id="g12" />
  </g>
</svg>
