<svg version="1.1" id="Layer_1" xmlns:x="ns_extend;" xmlns:i="ns_ai;" xmlns:graph="ns_graphs;" xmlns="http://www.w3.org/2000/svg" xmlns:xlink="http://www.w3.org/1999/xlink" x="0px" y="0px" viewBox="0 0 183.8 50" style="enable-background:new 0 0 183.8 50;" xml:space="preserve">
 <style type="text/css">
  .st0{fill:#1976D2;}
 </style>
 <metadata>
  <sfw xmlns="ns_sfw;">
   <slices>
   </slices>
   <sliceSourceBounds bottomLeftOrigin="true" height="50" width="183.8" x="251.2" y="-49">
   </sliceSourceBounds>
  </sfw>
 </metadata>
 <g>
  <g>
   <path class="st0" d="M77.8,37c-1.9,1.1-4.1,1.7-6.8,1.7c-7.6,0-12.1-5.3-12.1-14.3c0-6.4,2.4-10.6,5.7-12.8c1.8-1.2,4.5-2,6.9-2
			c1.8,0,3.8,0.4,5.3,1.2c1,0.5,1.5,0.9,2.7,1.9l-3.5,4.8c-1.5-1.4-3-2.2-4.4-2.2c-3.2,0-4.7,2.8-4.7,9.3c0,3.6,0.5,5.8,1.4,7
			c0.7,1,2,1.6,3.2,1.6c1.7,0,3.2-0.7,5-2.3l0.4-0.4l3.3,4.4C79.3,36.1,78.8,36.4,77.8,37L77.8,37z">
   </path>
   <path class="st0" d="M101.9,34.9c-2.1,2.4-4.9,3.8-9.1,3.8c-7.5,0-12.4-5.6-12.4-14.3s5-14.5,12.4-14.5c3.9,0,7,1.4,9.4,4.2
			c2.2,2.6,3.2,5.6,3.2,10.1C105.4,28.9,104.3,32.2,101.9,34.9L101.9,34.9z M96,16.7c-0.7-0.9-1.8-1.5-3.1-1.5
			c-1.7,0-3.1,1.1-3.7,2.8c-0.5,1.5-0.7,3.4-0.7,6.1c0,3.2,0.3,5.6,0.9,7c0.6,1.5,2.3,2.3,3.7,2.3c3.1,0,4.5-2.8,4.5-9.3
			C97.5,20.4,97,18,96,16.7L96,16.7z">
   </path>
   <path class="st0" d="M125.8,38.9c-0.9-0.6-1.7-1.6-2.2-2.7c-1.8,1.7-4.4,2.7-7.3,2.7c-3.9,0-7.2-1.8-8.1-4.5
			c-0.4-1.2-0.6-2.7-0.6-5.5V11.1l7.1-1.4v17.8c0,2.5,0.2,3.8,0.6,4.5c0.4,0.7,1.5,1.3,2.6,1.3c1.8,0,3.9-1.3,4.5-2.7V11.3l6.9-1.5
			v21.1c0,1.8,0.6,3.7,1.7,5L125.8,38.9L125.8,38.9z">
   </path>
   <path class="st0" d="M154.1,35.6c-1.9,2-4.4,3.1-7.4,3.1c-2.2,0-4.2-0.5-5.8-1.5c0.1,0.6,0.1,1.5,0.1,2.3v8.6l-7,1.8V18
			c0-3.6-0.1-4.7-0.4-7l6.4-1.1c0.3,1,0.4,1.7,0.5,2.6c1.2-1.5,4-2.6,6.8-2.6c1.9,0,3.9,0.6,5.5,1.7c3,2,5.1,5.6,5.1,11.9
			C157.9,29.5,157,32.5,154.1,35.6L154.1,35.6z M149.4,18.1c-0.5-1.5-1.7-2.3-3.5-2.3c-1.8,0-3.5,0.7-4.8,2.1v13.4
			c1,0.8,2.6,1.6,4,1.6c3.6,0,5-2.4,5-8.8C150.1,21.6,149.8,19.5,149.4,18.1z">
   </path>
   <path class="st0" d="M179.9,39.5c-1.7-0.7-3.2-1.9-3.9-3.4c-0.5,0.5-1.1,1.1-1.7,1.5c-1.4,1-3.3,1.5-5.6,1.5
			c-6.1,0-9.5-3.1-9.5-8.6c0-6.5,4.5-9.5,13.3-9.5c0.5,0,1,0,1.6,0.1v-1.1c0-3.1-0.6-4.1-3.2-4.1c-2.3,0-5,1.1-8,3.1l-3.1-5.2
			c1.5-0.9,2.6-1.5,4.5-2.3c2.7-1.1,5-1.6,7.6-1.6c4.7,0,7.8,1.7,8.9,4.8c0.4,1.1,0.5,2,0.5,5l-0.2,9.3c-0.1,3,0.2,4.3,2.6,6.1
			C183.8,35.1,179.9,39.5,179.9,39.5z M173.8,26c-5,0-6.8,0.9-6.8,4.2c0,2.2,1.4,3.6,3.2,3.6c1.4,0,2.7-0.7,3.8-1.9l0.1-5.9
			L173.8,26L173.8,26z">
   </path>
  </g>
  <path class="st0" d="M53.9,27.2c-1.5-1.9-6.4-4.6-6.4-4.6c2.2-0.2,4.6-0.9,4.6-0.9c2.2-0.7,2.3-1.8,2.3-1.8c0.2-1.2-2-2.1-2-2.1
		c-2.3-1.2-7-1.9-7-1.9c2-1.1,3.2-2.1,3.2-2.1c2-1.8,1.5-2.6,1.5-2.6c-0.3-1-2.5-1.3-2.5-1.3c-2-0.3-5.3,0.3-5.3,0.3
		C43.5,8.5,43.9,7,43.9,7c0.3-1.2-0.1-1.8-0.1-1.8c-0.5-0.9-2.5-0.5-2.5-0.5c-2.8,0.7-4.8,2-4.8,2c0.4-1.3,0.3-3.2,0.3-3.2
		c-0.1-0.7-0.2-1.7-0.9-2.1c-0.8-0.6-1.9-0.1-2.7,0.4c-0.7,0.5-1.4,1.1-2,1.8c-0.1,0.1-0.6,0.6-0.6,0.7c-0.2-0.7-0.4-1.4-0.7-2
		c-0.4-1-1.4-2.2-2.6-2.3l0,0l0,0l0,0l0,0c-1.2,0.1-2.2,1.3-2.6,2.3c-0.3,0.7-0.5,1.3-0.7,2c0-0.1-0.5-0.6-0.6-0.7
		c-0.6-0.7-1.2-1.3-2-1.8c-0.7-0.5-1.9-0.9-2.7-0.4c-0.6,0.5-0.8,1.4-0.9,2.1c0,0-0.1,1.9,0.3,3.2c0,0-2-1.3-4.8-2
		c0,0-1.9-0.4-2.5,0.5c0,0-0.5,0.6-0.1,1.8c0,0,0.5,1.5,1.7,3.1c0,0-3.3-0.6-5.3-0.3c0,0-2.2,0.2-2.5,1.3c0,0-0.5,0.9,1.5,2.6
		c0,0,1.2,1,3.2,2.1c0,0-4.7,0.7-7,1.9c0,0-2.1,1-2,2.1c0,0,0.1,1.1,2.3,1.8c0,0,2.4,0.8,4.6,0.9c0,0-5,2.6-6.4,4.6
		c0,0-1.2,1.2-0.9,2.2c0,0,0.3,1.3,3.8,1.1c0,0,2.8-0.2,6.1-1.2c0,0,0,0,0,0s-3.3,3.8-4.3,5.8c0,0-2.2,3.4-0.9,4.8
		c0,0,0.6,0.8,3,0.1c0,0,3.3-1.1,6.9-4c0,0-1.5,4.1-1.6,7.3c0,0-0.3,3.1,1.3,3.8c0,0,1.4,0.7,3.9-2c0,0,3.1-3.4,4.9-6.8
		c0.2,1.9,0.5,3.8,1,5.7c0.3,1.2,0.7,2.3,1.2,3.4c0.4,0.8,1,1.9,2,2l0,0l0,0l0,0l0,0c1-0.1,1.6-1.2,2-2c0.5-1.1,0.9-2.2,1.2-3.4
		c0.5-1.9,0.8-3.8,1-5.7c1.8,3.4,4.9,6.8,4.9,6.8c2.6,2.7,3.9,2,3.9,2c1.6-0.6,1.3-3.8,1.3-3.8c-0.2-3.2-1.6-7.3-1.6-7.3
		c3.5,2.9,6.9,4,6.9,4c2.4,0.7,3-0.1,3-0.1c1.3-1.3-0.9-4.8-0.9-4.8c-1-2-4.3-5.8-4.3-5.8s0,0,0,0c3.4,1,6.1,1.2,6.1,1.2
		c3.5,0.2,3.8-1.1,3.8-1.1C55.1,28.4,53.9,27.2,53.9,27.2L53.9,27.2z M48.1,26.8c0,0-0.5,2-8.3-0.3c0,0-4.4-1.4-6.3-2.5
		c0,0,4,6.8,4.4,12.2c0,0,0.3,2.6-1,3.1c0,0-1.4,0.6-4.2-2.9c0,0-3.4-4.1-5.3-10.1c-2,6.1-5.3,10.1-5.3,10.1
		c-2.8,3.5-4.2,2.9-4.2,2.9c-1.3-0.5-1-3.1-1-3.1c0.4-5.4,4.4-12.2,4.4-12.2c-1.9,1.1-6.3,2.5-6.3,2.5c-7.7,2.3-8.3,0.3-8.3,0.3
		c-0.6-1.7,3.8-4.3,3.8-4.3c3.4-2.2,8.6-3.8,8.6-3.8c-6.1-1.7-8.3-3.8-8.3-3.8c-1.9-1.6-1.3-2.3-1.3-2.3c0.9-1.6,6.3-0.6,6.3-0.6
		c3.9,0.7,6,1.8,6,1.8c-1.6-3-2-5.6-2-5.6c-0.5-3.3,0.9-3.6,0.9-3.6c1.1-0.4,2.6,1.1,2.6,1.1c3,3.1,4,6.1,4,6.1l0,0l0,0
		c0,0,1-3.1,4-6.1c0,0,1.5-1.5,2.6-1.1c0,0,1.4,0.3,0.9,3.6c0,0-0.4,2.6-2,5.6c0,0,2.1-1,6-1.8c0,0,5.3-1,6.3,0.6
		c0,0,0.6,0.7-1.3,2.3c0,0-2.2,2.1-8.3,3.8c0,0,5.2,1.6,8.6,3.8C44.2,22.5,48.7,25.1,48.1,26.8L48.1,26.8z">
  </path>
 </g>
</svg>