<?xml version="1.0" encoding="utf-8"?>
<!-- Generator: Adobe Illustrator 19.2.1, SVG Export Plug-In . SVG Version: 6.00 Build 0)  -->
<svg version="1.1" id="layer" xmlns="http://www.w3.org/2000/svg" xmlns:xlink="http://www.w3.org/1999/xlink" x="0px" y="0px"
	 viewBox="0 0 652 652" style="enable-background:new 0 0 652 652;" xml:space="preserve">
<style type="text/css">
	.st0{fill:#FBBA00;}
</style>
<path d="M20.8,339l10.6-6.4c3.5,6.9,9.8,10.9,17.3,10.9c6.4,0,11.2-2.4,11.2-7.2s-4.5-6.9-12.8-9.3c-11.7-2.9-23.7-5.9-23.7-19.2
	c0-12,9.3-18.9,22.9-18.9c13,0,20.8,6.4,25.3,13l-9.8,7.5c-3.5-5.3-9.6-9-15.7-9c-5.9,0-9.3,2.7-9.3,6.4c0,5.1,4.8,6.9,13,9.3
	c11.2,2.9,23.1,6.7,23.1,19.7c0,10.1-7.7,19.4-25.5,19.4C34.1,354.7,25.5,348.3,20.8,339z M75.8,353.6l22.6-63.9h13.3l22.6,63.9
	h-14.1l-4.8-14.1H93.9l-4.8,14.1C89.1,353.6,75.8,353.6,75.8,353.6z M97.1,329.1H112l-7.2-21.6h-0.3
	C104.6,307.6,97.1,329.1,97.1,329.1z M141.3,353.6V290h23.1c13.6,0,26.1,3.7,26.1,20.5c0,17-13.3,20.8-26.1,20.8h-9v22.6h-14.1
	L141.3,353.6z M155.1,320.1h9.6c8.8,0,12-3.5,12-9.6c0-5.9-3.2-9.3-12-9.3h-9.6V320.1z M215,353.6l22.4-63.9h13.3l22.4,63.9h-14.1
	l-4.8-13.3h-21.6l-4.8,13.3H215z M236,329.7h14.9l-7.2-21.3h-0.3L236,329.7z M281.2,353.6v-45.2h13.3v8H294
	c2.4-5.3,6.9-10.6,15.4-10.6h0.5l-0.3,12.8h-3.5c-5.6,0-9.3,3.2-12,6.7v28.5H281.2z M318.5,300.4v-10.6h13.3v10.6H318.5z
	 M318.5,353.6v-45.2h13.3v45.2H318.5z M355.7,348v5.6h-13.3v-63.9h13.3v25c2.7-4.3,7.5-8,14.1-8c10.4,0,17.6,8,17.6,23.7
	c0,15.7-7.5,23.7-17.8,23.7C363.7,354.1,358.4,351.7,355.7,348z M373.8,330.5c0-7.7-2.9-12.5-9-12.5c-3.5,0-6.4,2.1-9,4.5v16.8
	c2.7,2.9,5.6,4.3,9.3,4.3C370.9,343.8,373.8,339,373.8,330.5z M393,341.6c0-10.6,8-16.5,29.3-18.1v-0.8c0-3.5-1.9-5.6-6.4-5.6
	c-5.9,0-10.9,2.4-15.2,5.6l-5.9-8c4.5-4,11.4-8.2,22.9-8.2c12.5,0,17.8,6.1,17.8,17.8v17.6c0,5.6,0,8.5,1.1,11.2h-13.8
	c-0.5-2.7-1.1-4.3-1.1-6.7c-4.3,4.8-9,7.5-15.7,7.5C399.1,354.1,393,349.6,393,341.6L393,341.6z M422.3,339.8v-8.5
	c-10.6,1.1-15.7,3.7-15.7,8c0,2.9,2.1,4.3,5.1,4.3C416.7,343.8,419.6,342.2,422.3,339.8z"/>
<path class="st0" d="M601.6,375.4l-60.1-111.2h13.3c2.7,0,4.8,1.3,5.9,3.5l60.1,111.2h-13.3C605.1,378.9,602.7,377.6,601.6,375.4z
	 M488.8,378.9h13.3c2.7,0,4.8-1.3,5.9-3.5l16.5-30.3l-8.5-16L488.8,378.9z M463,378.9c2.7,0,4.8-1.3,5.9-3.5l46.8-86.5l46.8,86.5
	c1.1,2.1,3.2,3.5,5.9,3.5h13.3l-60.1-111.2c-1.1-2.1-3.2-3.5-5.9-3.5c-2.4,0-4.8,1.3-5.9,3.5l-60.1,111.2H463z"/>
</svg>
